<svg xmlns="http://www.w3.org/2000/svg" width="710" height="355" viewBox="0 0 710 355"><defs><style>.cls-1,.cls-10{fill:#001d6c;}.cls-1,.cls-2,.cls-3{stroke:#fff;stroke-width:5px;}.cls-1,.cls-11,.cls-2,.cls-3,.cls-4,.cls-6,.cls-9{stroke-miterlimit:10;}.cls-2{fill:#4589ff;}.cls-3,.cls-5{fill:#0043ce;}.cls-11,.cls-4,.cls-6,.cls-9{fill:none;stroke-width:23px;}.cls-4{stroke:#0043ce;}.cls-6{stroke:#a6c8ff;}.cls-7{fill:#a6c8ff;}.cls-8{opacity:0.5;}.cls-9{stroke:#001d6c;}.cls-11{stroke:#edf5ff;}.cls-12{fill:#edf5ff;}.cls-13{font-size:14px;fill:#fff;font-family:IBMPlexSans-SemiBold, IBM Plex Sans;font-weight:600;}.cls-14{letter-spacing:-0.004em;}.cls-15{letter-spacing:-0.011em;}.cls-16{letter-spacing:-0.004em;}.cls-17{letter-spacing:-0.009em;}.cls-18{letter-spacing:-0.005em;}</style></defs><g id="Layer_4" data-name="Layer 4"><path class="cls-1" d="M174.5906,180.5894,304.26,255.3953a149.6617,149.6617,0,0,1-259.161-.0437l129.4918-74.7622L45.0988,255.3516"/><path class="cls-2" d="M174.6922,180.5308,45.0988,255.3516A149.6535,149.6535,0,0,1,174.6922,30.91v0"/><path class="cls-3" d="M174.6922,180.5894V30.91A149.6526,149.6526,0,0,1,304.26,255.3953L174.6922,180.5894,304.26,255.3953"/><path class="cls-4" d="M180.52,24.8181c99.7661,9.628,179.19,105.5406,140.46,210.305"/><polygon class="cls-5" points="347.877 242.793 296.668 220.419 311.088 257.204 347.877 242.793"/><path class="cls-6" d="M304.26,262.142c-75.6613,80.7441-163.4237,94.5709-247.0532,14.6169"/><polygon class="cls-7" points="39.919 298.865 79.912 259.834 40.405 259.358 39.919 298.865"/><g class="cls-8"><path class="cls-9" d="M304.26,262.1418c-75.6613,80.7444-163.4237,94.5711-247.0533,14.6169"/><polygon class="cls-10" points="39.919 298.865 79.912 259.834 40.405 259.358 39.919 298.865"/></g><path class="cls-11" d="M37.2164,252.6285C4.6838,146.8651,36.2482,63.8164,147.17,30.91"/><polygon class="cls-12" points="136.562 4.929 150.591 59.022 170.616 24.963 136.562 4.929"/><g class="cls-8"><path class="cls-6" d="M37.2164,252.6285C4.6838,146.8651,36.2482,63.8164,147.17,30.91"/><polygon class="cls-7" points="136.562 4.929 150.591 59.022 170.616 24.963 136.562 4.929"/></g><g class="cls-8"><path class="cls-11" d="M180.52,24.9863c99.7661,9.6281,179.19,105.5407,140.46,210.3051"/><polygon class="cls-12" points="347.877 242.961 296.668 220.587 311.088 257.372 347.877 242.961"/></g></g><g id="Layer_5" data-name="Layer 5"><text class="cls-13" transform="translate(67.4811 138.2114)">In<tspan class="cls-14" x="14.1538" y="0">t</tspan><tspan x="19.3335" y="0">eg</tspan><tspan class="cls-15" x="34.7759" y="0">r</tspan><tspan class="cls-16" x="40.1235" y="0">a</tspan><tspan x="47.8936" y="0">tion</tspan></text><text class="cls-13" transform="translate(209.9363 138.2111)">Depl<tspan class="cls-17" x="29.9736" y="0">o</tspan><tspan x="37.7295" y="0">yment</tspan></text><text class="cls-13" transform="translate(139.6359 255.3952)">Complian<tspan class="cls-18" x="61.7388" y="0">c</tspan><tspan x="68.8511" y="0">e</tspan></text></g></svg>