<svg xmlns="http://www.w3.org/2000/svg" width="334.3055" height="336.7528" viewBox="0 0 334.3055 336.7528"><defs><style>.cls-1,.cls-11{fill:#001d6c;}.cls-1,.cls-2,.cls-3{stroke:#fff;stroke-width:5px;}.cls-1,.cls-10,.cls-12,.cls-2,.cls-3,.cls-4,.cls-7{stroke-miterlimit:10;}.cls-2{fill:#4589ff;}.cls-3,.cls-5{fill:#0043ce;}.cls-10,.cls-12,.cls-4,.cls-7{fill:none;stroke-width:23px;}.cls-4{stroke:#0043ce;}.cls-14,.cls-6{fill:#fff;}.cls-7{stroke:#a6c8ff;}.cls-8{fill:#a6c8ff;}.cls-9{opacity:0.5;}.cls-10{stroke:#001d6c;}.cls-12{stroke:#edf5ff;}.cls-13{fill:#edf5ff;}.cls-14{font-size:14px;font-family:IBMPlexSans-SemiBold, IBM Plex Sans;font-weight:600;}</style></defs><g id="Layer_4" data-name="Layer 4"><path class="cls-1" d="M661.1768,188.7342,790.846,263.54a149.6618,149.6618,0,0,1-259.1611-.0438l129.4919-74.7621L531.6849,263.4963" transform="translate(-500.1573 -13.0739)"/><path class="cls-2" d="M661.2784,188.6755,531.6849,263.4963A149.6535,149.6535,0,0,1,661.2784,39.0545v0" transform="translate(-500.1573 -13.0739)"/><path class="cls-3" d="M661.2784,188.7342V39.0545A149.6528,149.6528,0,0,1,790.846,263.54L661.2784,188.7342,790.846,263.54" transform="translate(-500.1573 -13.0739)"/><path class="cls-4" d="M667.1064,32.9629c99.766,9.628,179.19,105.5406,140.46,210.305" transform="translate(-500.1573 -13.0739)"/><polygon class="cls-5" points="334.306 237.863 283.097 215.49 297.517 252.275 334.306 237.863"/><path class="cls-6" d="M823.3974,237.463" transform="translate(-500.1573 -13.0739)"/><path class="cls-7" d="M790.846,270.2868c-75.6613,80.7441-163.4237,94.5708-247.0533,14.6169" transform="translate(-500.1573 -13.0739)"/><polygon class="cls-8" points="26.348 293.936 66.341 254.905 26.834 254.429 26.348 293.936"/><g class="cls-9"><path class="cls-10" d="M790.846,270.2866c-75.6613,80.7444-163.4237,94.5711-247.0533,14.6169" transform="translate(-500.1573 -13.0739)"/><polygon class="cls-11" points="26.348 293.936 66.341 254.905 26.834 254.429 26.348 293.936"/></g><path class="cls-12" d="M523.8026,260.7733C491.27,155.01,522.8344,71.9611,633.7565,39.0547" transform="translate(-500.1573 -13.0739)"/><polygon class="cls-13" points="122.991 0 137.02 54.093 157.045 20.034 122.991 0"/><g class="cls-9"><path class="cls-7" d="M523.8026,260.7733C491.27,155.01,522.8344,71.9611,633.7565,39.0547" transform="translate(-500.1573 -13.0739)"/><polygon class="cls-8" points="122.991 0 137.02 54.093 157.045 20.034 122.991 0"/></g><g class="cls-9"><path class="cls-12" d="M667.1064,33.1311c99.766,9.628,179.19,105.5407,140.46,210.3051" transform="translate(-500.1573 -13.0739)"/><polygon class="cls-13" points="334.306 238.032 283.097 215.658 297.517 252.443 334.306 238.032"/></g></g><g id="Layer_5" data-name="Layer 5"><text class="cls-14" transform="translate(196.3652 133.282)">Deployment</text><text class="cls-14" transform="translate(126.0647 250.4661)">Compliance</text><text class="cls-14" transform="translate(56.9091 133.2821)">Integration</text></g></svg>