<svg xmlns="http://www.w3.org/2000/svg" viewBox="0 0 1335.05 213.05"><defs><style>.cls-1{fill:#f0f0f0;}.cls-2{fill:#002d9c;}.cls-3,.cls-4{fill:#fff;}.cls-4{fill-rule:evenodd;}.cls-5,.cls-6{fill:none;stroke:#002d9c;stroke-miterlimit:10;}.cls-6{stroke-dasharray:3 2 3 2 3 2;}.cls-7{fill:#24a148;}.cls-8{fill:#da1e28;}.cls-11,.cls-9{font-size:12px;}.cls-9{font-family:IBMPlexSans-SemiBoldItalic, IBM Plex Sans;font-weight:600;font-style:italic;}.cls-10{font-size:14px;font-family:IBMPlexSans-Bold, IBM Plex Sans;font-weight:700;}.cls-11{font-family:IBMPlexSans, IBM Plex Sans;}</style></defs><g id="Background"><rect class="cls-1" x="54.33" y="35.58" width="141.39" height="152.14"/><rect class="cls-1" x="364.69" y="37.48" width="933.57" height="152.14"/><circle class="cls-2" cx="125.03" cy="85.38" r="27.18" transform="translate(21.3 195.67) rotate(-81.09)"/><g id="deployable-architecture"><path class="cls-3" d="M130.79,75.48h0a.92.92,0,0,1,.92.92V94.83a.92.92,0,0,1-.92.92h0a.92.92,0,0,1-.92-.92V76.4A.92.92,0,0,1,130.79,75.48Z"/><path class="cls-4" d="M130.79,77.55a4.15,4.15,0,1,0-4.15-4.15A4.14,4.14,0,0,0,130.79,77.55Zm0-2.07a2.08,2.08,0,1,0-2.08-2.08A2.08,2.08,0,0,0,130.79,75.48Z"/><circle class="cls-3" cx="130.79" cy="99.44" r="2.07"/><path class="cls-3" d="M118.81,95.29h0a.92.92,0,0,0,.92-.92V75.94a.93.93,0,0,0-.92-.93h0a.93.93,0,0,0-.92.93V94.37A.92.92,0,0,0,118.81,95.29Z"/><path class="cls-4" d="M119,93.22a4.15,4.15,0,1,1-4.15,4.14A4.14,4.14,0,0,1,119,93.22Zm0,2.07A2.08,2.08,0,1,1,117,97.36,2.07,2.07,0,0,1,119,95.29Z"/><circle class="cls-3" cx="119.04" cy="71.33" r="2.07"/><path class="cls-3" d="M115.12,79.39h0a.92.92,0,0,0,.92.92h18.43a.92.92,0,0,0,.92-.92h0a.92.92,0,0,0-.92-.92H116A.92.92,0,0,0,115.12,79.39Z"/><path class="cls-4" d="M117.19,79.39a4.15,4.15,0,1,1-4.14-4.14A4.14,4.14,0,0,1,117.19,79.39Zm-2.07,0a2.08,2.08,0,1,1-2.07-2.07A2.08,2.08,0,0,1,115.12,79.39Z"/><circle class="cls-3" cx="139.31" cy="79.39" r="1.84"/><path class="cls-3" d="M134.93,91.49h0a1,1,0,0,1-1,1H115.7a1,1,0,0,1-1-1h0a1,1,0,0,1,1-1h18.2A1,1,0,0,1,134.93,91.49Z"/><path class="cls-4" d="M132.86,91.37A4.15,4.15,0,1,0,137,87.23,4.15,4.15,0,0,0,132.86,91.37Zm2.07,0A2.08,2.08,0,1,0,137,89.3,2.08,2.08,0,0,0,134.93,91.37Z"/><circle class="cls-3" cx="110.97" cy="91.37" r="2.07"/></g><line class="cls-5" x1="194.65" y1="107.49" x2="343.38" y2="107.49"/><polygon class="cls-2" points="342.65 109.98 346.97 107.49 342.65 104.99 342.65 109.98"/><circle class="cls-2" cx="408.36" cy="101.44" r="27.18"/><rect class="cls-3" x="394.36" y="112.44" width="28" height="2"/><path class="cls-3" d="M417.76,95.44a1.93,1.93,0,0,0,0-2.8h0l-3.6-3.6a1.93,1.93,0,0,0-2.8,0h0l-15,15v6.4h6.4Zm-5-5,3.6,3.6-3,3-3.6-3.6Zm-14.4,18v-3.6l10-10,3.6,3.6-10,10Z"/><circle class="cls-2" cx="507.64" cy="101.44" r="27.18"/><path class="cls-3" d="M519.35,94.73l-5-5a1,1,0,0,0-.71-.29h-16a2,2,0,0,0-2,2v20a2,2,0,0,0,2,2h20a2,2,0,0,0,2-2v-16A1,1,0,0,0,519.35,94.73Zm-15.71-3.29h8v4h-8Zm8,20h-8v-8h8Zm2,0v-8a2,2,0,0,0-2-2h-8a2,2,0,0,0-2,2v8h-4v-20h4v4a2,2,0,0,0,2,2h8a2,2,0,0,0,2-2V91.85l4,4v15.59Z"/><circle class="cls-2" cx="604.81" cy="102.98" r="27.18"/><path class="cls-3" d="M604.8,109a6,6,0,1,1,6-6,5.93,5.93,0,0,1-5.87,6Zm0-10a3.91,3.91,0,0,0-4,3.82V103a3.93,3.93,0,0,0,3.83,4h.17a3.9,3.9,0,0,0,4-3.82.54.54,0,0,0,0-.18A3.91,3.91,0,0,0,605,99Z"/><path class="cls-3" d="M618.11,98l-2.36-4.09a2,2,0,0,0-2.37-.9l-2.44.83a10.13,10.13,0,0,0-1.31-.76l-.5-2.52a2,2,0,0,0-2-1.61h-4.72a2,2,0,0,0-2,1.61l-.5,2.52a11.61,11.61,0,0,0-1.33.75L596.23,93a2,2,0,0,0-2.37.9L591.5,98a2,2,0,0,0,.41,2.5l1.93,1.69c0,.26,0,.51,0,.76s0,.51,0,.77l-1.92,1.68a2,2,0,0,0-.41,2.51l2.36,4.09a2,2,0,0,0,2.37.89l2.44-.82a11.35,11.35,0,0,0,1.31.75l.5,2.52a2,2,0,0,0,2,1.61h4.36v-2h-4.36l-.71-3.55a9,9,0,0,1-2.7-1.57L595.59,111l-2.36-4.09,2.73-2.4a8.89,8.89,0,0,1,0-3.13L593.23,99l2.36-4.09L599,96.1a9.1,9.1,0,0,1,2.71-1.57l.72-3.55h4.72l.71,3.55a9.31,9.31,0,0,1,2.69,1.57L614,94.94,616.38,99l-2.8,2.45,1.32,1.5,2.8-2.45A2,2,0,0,0,618.11,98Z"/><polygon class="cls-3" points="612.8 113.16 610.22 110.57 608.8 111.98 612.8 115.98 619.8 108.98 618.39 107.57 612.8 113.16"/><circle class="cls-2" cx="828.37" cy="102.06" r="27.18"/><circle class="cls-2" cx="927.64" cy="102.84" r="27.18"/><path class="cls-3" d="M934.14,88.84l-6,6,1.41,1.4,3.59-3.58v22.18h-16v-16h-2v16a2,2,0,0,0,2,2h16a2,2,0,0,0,2-2V92.65l3.58,3.59,1.42-1.4Z"/><path class="cls-3" d="M927.14,110.84h-4a2,2,0,0,1-2-2v-4a2,2,0,0,1,2-2h4a2,2,0,0,1,2,2v4A2,2,0,0,1,927.14,110.84Zm-4-6v4h4v-4Z"/><line class="cls-5" x1="435.48" y1="101.44" x2="466.63" y2="101.44"/><polygon class="cls-2" points="465.9 103.93 470.22 101.44 465.9 98.94 465.9 103.93"/><path class="cls-3" d="M841.4,105.06a6,6,0,1,0-10,4.46v7.54l4-1.89,4,1.89v-7.54A6,6,0,0,0,841.4,105.06Zm-4,8.84-2-1-2,1v-3.19a5.85,5.85,0,0,0,4,0Zm-2-4.84a4,4,0,1,1,4-4A4,4,0,0,1,835.4,109.06Z"/><path class="cls-3" d="M836.4,90.06h-3v-1a2,2,0,0,0-2-2h-8a2,2,0,0,0-2,2v1h-3a2,2,0,0,0-2,2v21a2,2,0,0,0,2,2h9v-2h-9v-21h3v3h12v-3h3v5h2v-5A2,2,0,0,0,836.4,90.06Zm-5,3h-8v-4h8Z"/><circle class="cls-2" cx="1144.97" cy="107.54" r="27.18"/><path class="cls-3" d="M1145,113.77a6.23,6.23,0,1,1,6.23-6.23A6.23,6.23,0,0,1,1145,113.77Zm0-10.9a4.62,4.62,0,1,0,4.62,4.62A4.62,4.62,0,0,0,1145,102.87Z"/><path class="cls-3" d="M1145,120a16.63,16.63,0,0,1-15.54-12.09l-.09-.38.09-.37a16,16,0,0,1,31.07,0l.09.37-.09.38A16.62,16.62,0,0,1,1145,120Zm-13.66-12.47a14.21,14.21,0,0,0,27.31,0,14.21,14.21,0,0,0-27.31,0Z"/><circle class="cls-2" cx="1246.08" cy="105.5" r="27.18"/><polygon class="cls-3" points="1256.58 114.59 1254.58 112.59 1254.58 110 1252.58 110 1252.58 113.41 1255.17 116 1256.58 114.59"/><path class="cls-3" d="M1253.58,120a7,7,0,1,1,7-7A7,7,0,0,1,1253.58,120Zm0-12a5,5,0,1,0,5,5A5,5,0,0,0,1253.58,108Z"/><path class="cls-3" d="M1245.58,117a12,12,0,0,1-12-12h-2a14,14,0,0,0,14,14Z"/><path class="cls-3" d="M1241.58,97h-4.92a12,12,0,0,1,20.92,8h2a14,14,0,0,0-24-9.77V91h-2v8h8Z"/><line class="cls-5" x1="534.82" y1="103.94" x2="565.98" y2="103.94"/><polygon class="cls-2" points="565.25 106.43 569.57 103.94 565.25 101.44 565.25 106.43"/><line class="cls-5" x1="855.42" y1="101.56" x2="886.57" y2="101.56"/><polygon class="cls-2" points="885.84 104.05 890.16 101.56 885.84 99.07 885.84 104.05"/><line class="cls-5" x1="1172.15" y1="106.54" x2="1203.3" y2="106.54"/><polygon class="cls-2" points="1202.58 109.04 1206.89 106.54 1202.58 104.05 1202.58 109.04"/><line class="cls-5" x1="631.99" y1="104.11" x2="780.72" y2="104.11"/><polygon class="cls-2" points="779.99 106.6 784.31 104.11 779.99 101.62 779.99 106.6"/><line class="cls-5" x1="954.75" y1="105.05" x2="1103.48" y2="105.05"/><polygon class="cls-2" points="1102.75 107.55 1107.07 105.05 1102.75 102.56 1102.75 107.55"/><polyline class="cls-6" points="407.36 162.27 407.36 181.78 1245.32 181.78 1246.58 181.78 1246.58 158.68"/><polygon class="cls-2" points="404.87 163 407.36 158.68 409.85 163 404.87 163"/><circle class="cls-3" cx="726.8" cy="104.11" r="6.83"/><path class="cls-7" d="M726.8,95.05a9.06,9.06,0,1,0,9.06,9.06A9.06,9.06,0,0,0,726.8,95.05Zm-1.3,12.68-3.23-3.24,1-1,2.2,2.21,4.8-4.8,1,1Z"/><polyline class="cls-6" points="708.64 102.98 708.64 63.13 708.64 66.39 708.64 43.48 708.19 43.48 407.36 43.48 407.36 62.81"/><polygon class="cls-2" points="404.87 62.08 407.36 66.39 409.85 62.08 404.87 62.08"/><ellipse class="cls-3" cx="708.64" cy="85.95" rx="7.29" ry="6.41"/><path class="cls-8" d="M708.64,76.85a9.05,9.05,0,0,0-9.1,9V86a9,9,0,0,0,9,9.1h.11a9,9,0,0,0,9.1-9V86a9,9,0,0,0-9-9.1Zm3.54,13.65-8.09-8.09,1-1,8.09,8.09Z"/></g><g id="Text"><text class="cls-9" transform="translate(67.7 145.1)">Choose a deployable <tspan x="24.4" y="14.4">architecture</tspan></text><text class="cls-10" transform="translate(51.99 28.34)">IBM Cloud catalog</text><text class="cls-9" transform="translate(218.7 127.25)">Add to project as a <tspan x="3.19" y="14.4">new configuration</tspan></text><text class="cls-10" transform="translate(362.35 28.34)">Project</text><text class="cls-11" transform="translate(382.39 148.46)">Configure</text><text class="cls-11" transform="translate(494.7 148.46)">Save</text><text class="cls-11" transform="translate(582.73 148.46)">Validate</text><text class="cls-11" transform="translate(805.75 148.46)">Approve</text><text class="cls-11" transform="translate(908.85 148.46)">Deploy</text><text class="cls-11" transform="translate(1226.45 148.46)">Update</text><text class="cls-11" transform="translate(1124.16 148.46)">Monitor</text><text class="cls-9" transform="translate(674.11 130.87)">Project runs <tspan x="-17.29" y="14.4">compliance checks</tspan></text><text class="cls-9" transform="translate(977.18 130.87)">Schematics deploys <tspan x="27.41" y="14.4">resources</tspan></text></g></svg>
